<?xml version="1.0" encoding="utf-8"?>
<!-- Generator: Adobe Illustrator 19.1.0, SVG Export Plug-In . SVG Version: 6.00 Build 0)  -->
<svg version="1.1" id="Layer_1" xmlns="http://www.w3.org/2000/svg" xmlns:xlink="http://www.w3.org/1999/xlink" x="0px" y="0px"
	 viewBox="0 0 640 1136" style="enable-background:new 0 0 640 1136;" xml:space="preserve">
<style type="text/css">
	.st0{display:none;}
	.st1{display:inline;}
	.st2{fill:#FFFFFF;}
	.st3{fill:none;}
	.st4{font-family:'Oswald-Regular';}
	.st5{font-size:47px;}
	.st6{font-size:24px;}
	.st7{display:none;fill:none;}
	.st8{font-size:140px;}
</style>
<g class="st0">
	<g class="st1">
		<path class="st2" d="M7.5,477.4c0-66,0-132.1,0-198.1c68.9,0,137.9,0,206.8,0c0,66,0,132.1,0,198.1
			C145.4,477.4,76.5,477.4,7.5,477.4z M82.9,365.1c-1.3,2.5-2.5,4.9-3.8,7.3c-1.8,3.4-3.9,6.7-5.5,10.1c-0.9,1.9-2.6,3.4-2.5,6
			c0.2,8.4,0.1,16.8,0.1,25.2c0,0.6-0.1,1.1,0,1.7c0.1,0.6,0.1,1.4,0.5,1.8c2.2,2.5,4.5,5,6.7,7.4c4.8,5.3,9.6,10.5,14.4,15.8
			c3.1,3.3,6.2,6.6,9.2,9.9c1.3,1.4,2.6,2.7,3.8,4.2c0.7,1,1.3,1,2.1,0.3c0.5-0.4,1.4-1.2,1.7-1.1c1.4,0.7,1.9-0.5,2.4-1.2
			c4.3-6,8.4-12.2,12.7-18.3c3.3-4.7,6.7-9.3,9.8-14c0.8-1.3,2.3-2.2,2.3-4.1c-0.1-9.9,0-19.8-0.1-29.8c0-0.7-0.4-1.6-0.9-2.1
			c-3.7-3.8-7.4-7.4-11.4-11.4c0.8-0.7,1.5-1.2,2.1-1.8c3-3.5,5.9-7,8.9-10.5c1.4-1.6,2.5-3,2.4-5.6c-0.3-9.8-0.1-19.6-0.1-29.4
			c0-0.5,0-1.1,0.3-1.4c0.7-0.8,0.3-1.2-0.3-1.8c-5.7-5.9-11.4-11.9-17.2-17.9c-4.9-5.1-9.9-10.2-14.9-15.2c-0.6-0.7-1.3-1.4-1.9-2
			c-0.6,0.7-1.3,1.3-1.9,2c-2.5,3-5,5.9-7.5,8.9c-3.2,3.8-6.3,7.6-9.5,11.5c-2.6,3.1-5.2,6.3-7.8,9.4c-1.6,1.8-3.3,3.5-4.9,5.4
			c-0.4,0.5-0.7,1.2-0.7,1.8c0,9.3,0,18.6,0,27.9c0,0.5,0.2,1.1,0.6,1.4c2.1,1.9,4.2,3.8,6.3,5.7C79.8,362.4,81.3,363.7,82.9,365.1z
			"/>
		<path d="M82.9,365.1c-1.6-1.4-3.1-2.7-4.5-4c-2.1-1.9-4.2-3.7-6.3-5.7c-0.3-0.3-0.6-0.9-0.6-1.4c0-9.3,0-18.6,0-27.9
			c0-0.6,0.3-1.3,0.7-1.8c1.6-1.8,3.3-3.5,4.9-5.4c2.7-3.1,5.2-6.3,7.8-9.4c3.2-3.8,6.3-7.7,9.5-11.5c2.5-3,5-5.9,7.5-8.9
			c0.6-0.7,1.2-1.4,1.9-2c0.6,0.7,1.2,1.4,1.9,2c5,5.1,9.9,10.1,14.9,15.2c5.8,5.9,11.5,11.9,17.2,17.9c0.6,0.6,0.9,1,0.3,1.8
			c-0.3,0.3-0.3,0.9-0.3,1.4c0,9.8-0.2,19.6,0.1,29.4c0.1,2.6-1.1,4-2.4,5.6c-3,3.5-5.9,7-8.9,10.5c-0.6,0.7-1.3,1.2-2.1,1.8
			c3.9,3.9,7.7,7.6,11.4,11.4c0.5,0.5,0.9,1.4,0.9,2.1c0.1,9.9,0,19.8,0.1,29.8c0,1.9-1.4,2.8-2.3,4.1c-3.2,4.8-6.6,9.4-9.8,14
			c-4.2,6.1-8.4,12.2-12.7,18.3c-0.5,0.7-1,1.9-2.4,1.2c-0.3-0.2-1.2,0.6-1.7,1.1c-0.9,0.7-1.4,0.7-2.1-0.3
			c-1.1-1.5-2.5-2.8-3.8-4.2c-3.1-3.3-6.2-6.6-9.2-9.9c-4.8-5.2-9.6-10.5-14.4-15.8c-2.2-2.5-4.5-4.9-6.7-7.4
			c-0.4-0.4-0.4-1.2-0.5-1.8c-0.1-0.5,0-1.1,0-1.7c0-8.4,0.1-16.8-0.1-25.2c-0.1-2.5,1.6-4,2.5-6c1.6-3.5,3.7-6.7,5.5-10.1
			C80.4,370,81.6,367.6,82.9,365.1z M106.7,453.5c0.8-0.6,1.3-0.9,1.8-1.4c1.5-1.4,3.3-2.5,4.5-4.2c3.5-4.7,6.7-9.5,10-14.3
			c3.2-4.6,6.5-9.3,9.8-13.9c1.5-2.1,2.2-4.2,2.2-6.9c-0.2-8.6-0.1-17.2,0-25.7c0-1.3-0.3-2.2-1.2-3.1c-9.3-9.2-18.5-18.5-27.7-27.7
			c-0.9-0.9-1.4-1.9-1.3-3.2c0-9,0-17.9,0-26.9c0-0.4-0.1-0.9,0.1-1.3c0.1-0.3,0.5-0.6,0.7-0.6c0.3,0,0.7,0.3,0.9,0.6
			c0.2,0.4,0.1,0.9,0.1,1.3c0,8.9,0,17.8,0,26.7c0,0.9,0.4,2.1,1.1,2.8c5,5.2,10.2,10.3,15.3,15.4c0.2,0.2,0.5,0.4,0.7,0.6
			c0.2-0.2,0.4-0.2,0.5-0.4c3.5-4.1,7-8.2,10.5-12.2c1.2-1.4,1.6-2.7,1.5-4.6c-0.2-9.8-0.1-19.6-0.1-29.4c0-0.7,0.2-1.4,0.4-2.2
			c-10.8-11.2-21.7-22.5-32.6-33.8c-1,1.2-1.9,2.1-2.7,3.1c-3.1,3.7-6.2,7.5-9.3,11.2c-2.6,3.1-5.2,6.2-7.8,9.2
			c-3.3,4-6.7,7.9-10,12c-0.4,0.5-0.8,1.3-0.8,2c-0.1,8.7-0.1,17.5,0,26.2c0,0.7,0.4,1.5,0.8,2c2.1,2,4.3,3.9,6.4,5.8
			c3.3,3,6.7,6,10,9c5.6,5.1,11.3,10.2,16.9,15.3c0.2,0.2,0.3,0.7,0.3,1c0,0.8-0.2,1.5-0.2,2.3c0,8.6,0,17.2,0,25.7
			c0,0.4,0.1,0.8,0,1.2c-0.1,0.3-0.5,0.6-0.8,0.9c-0.3-0.3-0.7-0.5-0.8-0.8c-0.1-0.4,0-0.9,0-1.3c0-8.9,0-17.8,0-26.7
			c0-1.1-0.3-1.9-1.1-2.6c-4.9-4.4-9.7-8.8-14.6-13.2c-1.9-1.7-3.9-3.4-5.9-5.1c-0.9,1.6-1.8,3.2-2.6,4.7c-2.1,3.9-4.3,7.8-6.4,11.7
			c-0.9,1.7-2.3,3.4-2.3,5.1c-0.2,9.1-0.1,18.3-0.1,27.4c0,0.6,0.3,1.3,0.7,1.7c2.1,2.4,4.3,4.8,6.5,7.2c4.3,4.7,8.6,9.3,12.9,14
			c1.3,1.4,2.6,2.8,3.8,4.2C100.1,446.1,103.4,449.8,106.7,453.5z"/>
		<path class="st2" d="M106.7,453.5c-3.3-3.7-6.6-7.4-10-11.1c-1.3-1.4-2.6-2.8-3.8-4.2c-4.3-4.7-8.6-9.3-12.9-14
			c-2.2-2.4-4.4-4.8-6.5-7.2c-0.4-0.4-0.7-1.1-0.7-1.7c0-9.1-0.2-18.3,0.1-27.4c0-1.7,1.4-3.5,2.3-5.1c2.1-3.9,4.2-7.8,6.4-11.7
			c0.8-1.5,1.7-3.1,2.6-4.7c2,1.7,4,3.4,5.9,5.1c4.9,4.4,9.7,8.8,14.6,13.2c0.8,0.7,1.1,1.5,1.1,2.6c0,8.9,0,17.8,0,26.7
			c0,0.4-0.1,0.9,0,1.3c0.1,0.3,0.5,0.6,0.8,0.8c0.3-0.3,0.6-0.5,0.8-0.9c0.1-0.3,0-0.8,0-1.2c0-8.6,0-17.2,0-25.7
			c0-0.8,0.2-1.5,0.2-2.3c0-0.3-0.1-0.8-0.3-1c-5.6-5.1-11.3-10.2-16.9-15.3c-3.3-3-6.7-6-10-9c-2.1-1.9-4.3-3.8-6.4-5.8
			c-0.5-0.5-0.8-1.3-0.8-2c-0.1-8.7-0.1-17.5,0-26.2c0-0.7,0.4-1.5,0.8-2c3.3-4,6.6-8,10-12c2.6-3.1,5.2-6.1,7.8-9.2
			c3.1-3.7,6.2-7.5,9.3-11.2c0.8-1,1.7-1.9,2.7-3.1c10.9,11.3,21.8,22.6,32.6,33.8c-0.1,0.7-0.4,1.5-0.4,2.2
			c0,9.8-0.1,19.6,0.1,29.4c0,1.9-0.3,3.3-1.5,4.6c-3.5,4-7,8.1-10.5,12.2c-0.1,0.1-0.3,0.2-0.5,0.4c-0.2-0.2-0.5-0.4-0.7-0.6
			c-5.1-5.1-10.3-10.2-15.3-15.4c-0.6-0.7-1.1-1.8-1.1-2.8c-0.1-8.9,0-17.8,0-26.7c0-0.4,0.1-0.9-0.1-1.3c-0.1-0.3-0.5-0.5-0.9-0.6
			c-0.2,0-0.6,0.3-0.7,0.6c-0.1,0.4-0.1,0.9-0.1,1.3c0,9,0,17.9,0,26.9c0,1.3,0.4,2.3,1.3,3.2c9.3,9.2,18.5,18.5,27.7,27.7
			c0.9,0.9,1.2,1.8,1.2,3.1c0,8.6-0.1,17.2,0,25.7c0.1,2.7-0.7,4.8-2.2,6.9c-3.3,4.6-6.6,9.2-9.8,13.9c-3.3,4.8-6.6,9.6-10,14.3
			c-1.2,1.6-3,2.8-4.5,4.2C108.1,452.6,107.5,453,106.7,453.5z"/>
	</g>
</g>
<rect x="139.1" y="378" class="st3" width="270" height="177"/>
<text transform="matrix(1 0 0 1 139.0991 419.1489)" class="st2 st4 st5">amari</text>
<rect x="139.1" y="420" class="st3" width="378" height="23.2"/>
<text transform="matrix(1 0 0 1 139.0996 441.0327)" class="st2 st4 st6">Crowd Sourcing for the Greater Good</text>
<line class="st7" x1="73.1" y1="325.6" x2="103.1" y2="289.6"/>
<line class="st7" x1="103.1" y1="289.6" x2="139.1" y2="325.6"/>
<line class="st7" x1="103.1" y1="289.6" x2="139.1" y2="325.6"/>
<line class="st7" x1="136" y1="357.3" x2="136.1" y2="322.6"/>
<line class="st7" x1="103.1" y1="289.6" x2="73.1" y2="325.6"/>
<line class="st7" x1="73.1" y1="325.6" x2="73.1" y2="353.3"/>
<line class="st7" x1="73.1" y1="353.3" x2="107.3" y2="386"/>
<line class="st7" x1="107.3" y1="386" x2="107.3" y2="414"/>
<line class="st7" x1="84.8" y1="364.5" x2="73.1" y2="386"/>
<line class="st7" x1="73.1" y1="386" x2="73.1" y2="417.3"/>
<line class="st7" x1="73.1" y1="417.3" x2="107.3" y2="455.3"/>
<line class="st3" x1="107.3" y1="455.3" x2="136" y2="417.3"/>
<line class="st3" x1="136" y1="417.3" x2="136" y2="386"/>
<line class="st3" x1="136" y1="386" x2="103.1" y2="353.3"/>
<line class="st3" x1="107.3" y1="353.3" x2="107.3" y2="325.6"/>
<line class="st3" x1="107.3" y1="414" x2="107.3" y2="386"/>
<line class="st7" x1="107.3" y1="386" x2="77.3" y2="357.3"/>
<line class="st7" x1="124.7" y1="371.7" x2="136" y2="357.3"/>
<line class="st7" x1="136" y1="357.3" x2="136.1" y2="322.6"/>
<line class="st7" x1="136.1" y1="322.6" x2="103.1" y2="289.6"/>
<line class="st7" x1="136.1" y1="322.6" x2="136" y2="357.3"/>
<line class="st7" x1="103.1" y1="289.6" x2="73.1" y2="325.6"/>
<line class="st3" x1="103.1" y1="289.6" x2="136.1" y2="322.6"/>
<rect x="69.3" y="320" class="st3" width="88.4" height="123.3"/>
<text transform="matrix(1 0 0 1 69.3332 442.4316)" class="st2 st4 st8">S</text>
</svg>
